<svg width="236" height="64" viewBox="0 0 236 64" fill="none" xmlns="http://www.w3.org/2000/svg">
<path d="M15.38 53.385C12.5567 53.385 10.0267 52.9267 7.79 52.01C5.55333 51.0933 3.75667 49.7367 2.4 47.94C1.08 46.1433 0.383334 43.98 0.31 41.45H10.32C10.4667 42.88 10.9617 43.98 11.805 44.75C12.6483 45.4833 13.7483 45.85 15.105 45.85C16.4983 45.85 17.5983 45.5383 18.405 44.915C19.2117 44.255 19.615 43.3567 19.615 42.22C19.615 41.2667 19.285 40.4783 18.625 39.855C18.0017 39.2317 17.2133 38.7183 16.26 38.315C15.3433 37.9117 14.0233 37.4533 12.3 36.94C9.80667 36.17 7.77167 35.4 6.195 34.63C4.61833 33.86 3.26167 32.7233 2.125 31.22C0.988334 29.7167 0.42 27.755 0.42 25.335C0.42 21.7417 1.72167 18.9367 4.325 16.92C6.92833 14.8667 10.32 13.84 14.5 13.84C18.7533 13.84 22.1817 14.8667 24.785 16.92C27.3883 18.9367 28.7817 21.76 28.965 25.39H18.79C18.7167 24.1433 18.2583 23.1717 17.415 22.475C16.5717 21.7417 15.49 21.375 14.17 21.375C13.0333 21.375 12.1167 21.6867 11.42 22.31C10.7233 22.8967 10.375 23.7583 10.375 24.895C10.375 26.1417 10.9617 27.1133 12.135 27.81C13.3083 28.5067 15.1417 29.2583 17.635 30.065C20.1283 30.9083 22.145 31.715 23.685 32.485C25.2617 33.255 26.6183 34.3733 27.755 35.84C28.8917 37.3067 29.46 39.195 29.46 41.505C29.46 43.705 28.8917 45.7033 27.755 47.5C26.655 49.2967 25.0417 50.7267 22.915 51.79C20.7883 52.8533 18.2767 53.385 15.38 53.385ZM33.3779 37.655C33.3779 34.465 34.0196 31.6783 35.3029 29.295C36.6229 26.9117 38.4379 25.0783 40.7479 23.795C43.0946 22.5117 45.7712 21.87 48.7779 21.87C52.6279 21.87 55.8362 22.8783 58.4029 24.895C61.0062 26.9117 62.7112 29.7533 63.5179 33.42H53.5079C52.6646 31.0733 51.0329 29.9 48.6129 29.9C46.8896 29.9 45.5146 30.5783 44.4879 31.935C43.4612 33.255 42.9479 35.1617 42.9479 37.655C42.9479 40.1483 43.4612 42.0733 44.4879 43.43C45.5146 44.75 46.8896 45.41 48.6129 45.41C51.0329 45.41 52.6646 44.2367 53.5079 41.89H63.5179C62.7112 45.4833 61.0062 48.3067 58.4029 50.36C55.7996 52.4133 52.5912 53.44 48.7779 53.44C45.7712 53.44 43.0946 52.7983 40.7479 51.515C38.4379 50.2317 36.6229 48.3983 35.3029 46.015C34.0196 43.6317 33.3779 40.845 33.3779 37.655ZM77.9537 27.425C79.0537 25.7383 80.4287 24.4183 82.0787 23.465C83.7287 22.475 85.562 21.98 87.5787 21.98V31.935H84.9937C82.647 31.935 80.887 32.4483 79.7137 33.475C78.5403 34.465 77.9537 36.225 77.9537 38.755V53H68.5487V22.31H77.9537V27.425ZM106.044 53.44C103.037 53.44 100.324 52.7983 97.9041 51.515C95.5207 50.2317 93.6324 48.3983 92.2391 46.015C90.8824 43.6317 90.2041 40.845 90.2041 37.655C90.2041 34.5017 90.9007 31.7333 92.2941 29.35C93.6874 26.93 95.5941 25.0783 98.0141 23.795C100.434 22.5117 103.147 21.87 106.154 21.87C109.161 21.87 111.874 22.5117 114.294 23.795C116.714 25.0783 118.621 26.93 120.014 29.35C121.407 31.7333 122.104 34.5017 122.104 37.655C122.104 40.8083 121.389 43.595 119.959 46.015C118.566 48.3983 116.641 50.2317 114.184 51.515C111.764 52.7983 109.051 53.44 106.044 53.44ZM106.044 45.3C107.841 45.3 109.362 44.64 110.609 43.32C111.892 42 112.534 40.1117 112.534 37.655C112.534 35.1983 111.911 33.31 110.664 31.99C109.454 30.67 107.951 30.01 106.154 30.01C104.321 30.01 102.799 30.67 101.589 31.99C100.379 33.2733 99.7741 35.1617 99.7741 37.655C99.7741 40.1117 100.361 42 101.534 43.32C102.744 44.64 104.247 45.3 106.044 45.3ZM136.499 12.3V53H127.094V12.3H136.499ZM152.719 12.3V53H143.314V12.3H152.719ZM180.49 0.749997L165.75 63.285H156.675L171.415 0.749997H180.49ZM208.492 46.18H194.082L191.772 53H181.927L195.897 14.39H206.787L220.757 53H210.802L208.492 46.18ZM206.072 38.92L201.287 24.785L196.557 38.92H206.072ZM229.739 19.12C228.089 19.12 226.732 18.6433 225.669 17.69C224.642 16.7 224.129 15.49 224.129 14.06C224.129 12.5933 224.642 11.3833 225.669 10.43C226.732 9.44 228.089 8.945 229.739 8.945C231.352 8.945 232.672 9.44 233.699 10.43C234.762 11.3833 235.294 12.5933 235.294 14.06C235.294 15.49 234.762 16.7 233.699 17.69C232.672 18.6433 231.352 19.12 229.739 19.12ZM234.414 22.31V53H225.009V22.31H234.414Z" fill="black"/>
</svg>
